<svg xmlns="http://www.w3.org/2000/svg" xmlns:xlink="http://www.w3.org/1999/xlink" width="40" zoomAndPan="magnify" viewBox="0 0 30 30.000001" height="40" preserveAspectRatio="xMidYMid meet" version="1.0"><defs><clipPath id="5d5f0fb10f"><path d="M 8.734375 1.25 L 21.074219 1.25 L 21.074219 27.378906 L 8.734375 27.378906 Z M 8.734375 1.25 " clip-rule="nonzero"/></clipPath></defs><g clip-path="url(#5d5f0fb10f)"><path fill="#a855f7" d="M 18.332031 5.636719 L 21.207031 5.636719 L 21.207031 1.300781 L 17.535156 1.300781 L 17.535156 1.316406 C 12.703125 1.492188 11.707031 4.199219 11.625 7.0625 L 11.613281 7.0625 L 11.613281 10.070312 L 8.734375 10.070312 L 8.734375 14.417969 L 11.613281 14.417969 L 11.613281 27.621094 L 16.777344 27.621094 L 16.777344 14.417969 L 20.476562 14.417969 L 21.207031 10.070312 L 16.777344 10.070312 L 16.777344 7.375 C 16.777344 6.417969 17.417969 5.636719 18.332031 5.636719 Z M 18.332031 5.636719 " fill-opacity="1" fill-rule="nonzero"/></g></svg>