<svg xmlns="http://www.w3.org/2000/svg" xmlns:xlink="http://www.w3.org/1999/xlink" width="40" zoomAndPan="magnify" viewBox="0 0 30 30.000001" height="40" preserveAspectRatio="xMidYMid meet" version="1.0"><defs><clipPath id="e9c24a93c4"><path d="M 5.492188 5.007812 L 24 5.007812 L 24 23.878906 L 5.492188 23.878906 Z M 5.492188 5.007812 " clip-rule="nonzero"/></clipPath><clipPath id="dcdba64071"><path d="M 6 5.007812 L 24.363281 5.007812 L 24.363281 23.878906 L 6 23.878906 Z M 6 5.007812 " clip-rule="nonzero"/></clipPath><clipPath id="0cf793a50f"><path d="M 5.492188 5.007812 L 24 5.007812 L 24 23.878906 L 5.492188 23.878906 Z M 5.492188 5.007812 " clip-rule="nonzero"/></clipPath></defs><g clip-path="url(#e9c24a93c4)"><path fill="#26f4ee" d="M 19.160156 23.007812 L 9.824219 23.007812 C 7.433594 23.007812 5.492188 21.066406 5.492188 18.675781 L 5.492188 9.339844 C 5.492188 6.949219 7.433594 5.007812 9.824219 5.007812 L 19.132812 5.007812 C 21.550781 5.007812 23.492188 6.949219 23.492188 9.339844 L 23.492188 18.648438 C 23.492188 21.066406 21.550781 23.007812 19.160156 23.007812 Z M 19.160156 23.007812 " fill-opacity="1" fill-rule="nonzero"/></g><g clip-path="url(#dcdba64071)"><path fill="#fe2c55" d="M 20.03125 23.878906 L 10.695312 23.878906 C 8.304688 23.878906 6.363281 21.9375 6.363281 19.546875 L 6.363281 10.210938 C 6.363281 7.820312 8.304688 5.878906 10.695312 5.878906 L 20.003906 5.878906 C 22.394531 5.878906 24.335938 7.820312 24.335938 10.210938 L 24.335938 19.519531 C 24.363281 21.9375 22.421875 23.878906 20.03125 23.878906 Z M 20.03125 23.878906 " fill-opacity="1" fill-rule="nonzero"/></g><g clip-path="url(#0cf793a50f)"><path fill="#000000" d="M 19.582031 23.457031 L 10.273438 23.457031 C 7.882812 23.457031 5.941406 21.515625 5.941406 19.125 L 5.941406 9.789062 C 5.914062 7.398438 7.882812 5.429688 10.273438 5.429688 L 19.582031 5.429688 C 21.972656 5.429688 23.914062 7.371094 23.914062 9.761719 L 23.914062 19.070312 C 23.941406 21.488281 21.972656 23.457031 19.582031 23.457031 Z M 19.582031 23.457031 " fill-opacity="1" fill-rule="nonzero"/></g><path fill="#26f4ee" d="M 17.023438 11.617188 C 16.011719 10.96875 15.53125 10.546875 15.308594 10.296875 L 15.308594 9.761719 C 15.308594 9.421875 15.054688 9.171875 14.714844 9.171875 C 14.378906 9.171875 14.125 9.421875 14.125 9.761719 L 14.125 15.949219 C 13.84375 15.835938 13.507812 15.75 13.167969 15.75 C 11.988281 15.75 11.03125 16.539062 11.03125 17.496094 C 11.03125 18.480469 11.988281 19.238281 13.167969 19.238281 C 14.265625 19.238281 15.167969 18.5625 15.277344 17.664062 C 15.277344 17.636719 15.277344 17.578125 15.277344 17.550781 L 15.277344 12.039062 C 15.363281 12.152344 15.476562 12.234375 15.589844 12.292969 C 15.730469 12.375 15.871094 12.433594 16.039062 12.460938 C 16.234375 12.515625 16.460938 12.515625 16.65625 12.546875 C 17.304688 12.65625 17.667969 13.417969 17.894531 13.980469 C 17.980469 14.175781 18.0625 14.402344 18.121094 14.625 C 18.148438 14.738281 18.316406 14.738281 18.34375 14.597656 C 18.511719 13.21875 17.640625 12.011719 17.023438 11.617188 Z M 17.023438 11.617188 " fill-opacity="1" fill-rule="nonzero"/><path fill="#fe2c55" d="M 17.445312 12.039062 C 16.433594 11.390625 15.953125 10.96875 15.730469 10.71875 L 15.730469 10.183594 C 15.730469 9.84375 15.476562 9.59375 15.136719 9.59375 C 14.800781 9.59375 14.546875 9.84375 14.546875 10.183594 L 14.546875 16.371094 C 14.265625 16.257812 13.929688 16.171875 13.589844 16.171875 C 12.410156 16.171875 11.453125 16.960938 11.453125 17.917969 C 11.453125 18.902344 12.410156 19.660156 13.589844 19.660156 C 14.6875 19.660156 15.589844 18.984375 15.699219 18.085938 C 15.699219 18.058594 15.699219 18 15.699219 17.972656 L 15.699219 12.460938 C 15.785156 12.574219 15.898438 12.65625 16.011719 12.714844 C 16.152344 12.796875 16.292969 12.855469 16.460938 12.882812 C 16.65625 12.9375 16.882812 12.9375 17.078125 12.96875 C 17.726562 13.078125 18.089844 13.839844 18.316406 14.402344 C 18.402344 14.597656 18.484375 14.824219 18.542969 15.046875 C 18.570312 15.160156 18.738281 15.160156 18.765625 15.019531 C 18.933594 13.640625 18.089844 12.460938 17.445312 12.039062 Z M 17.445312 12.039062 " fill-opacity="1" fill-rule="nonzero"/><path fill="#ffffff" d="M 17.21875 11.84375 C 16.207031 11.195312 15.730469 10.773438 15.503906 10.519531 L 15.503906 9.984375 C 15.503906 9.648438 15.25 9.394531 14.914062 9.394531 C 14.574219 9.394531 14.324219 9.648438 14.324219 9.984375 L 14.324219 16.171875 C 14.042969 16.0625 13.703125 15.976562 13.367188 15.976562 C 12.183594 15.976562 11.230469 16.765625 11.230469 17.71875 C 11.230469 18.703125 12.183594 19.464844 13.367188 19.464844 C 14.464844 19.464844 15.363281 18.789062 15.476562 17.890625 C 15.476562 17.859375 15.476562 17.804688 15.476562 17.777344 L 15.476562 12.265625 C 15.558594 12.375 15.671875 12.460938 15.785156 12.515625 C 15.925781 12.601562 16.066406 12.65625 16.234375 12.6875 C 16.433594 12.742188 16.65625 12.742188 16.855469 12.769531 C 17.5 12.882812 17.867188 13.640625 18.089844 14.203125 C 18.175781 14.402344 18.261719 14.625 18.316406 14.851562 C 18.34375 14.964844 18.511719 14.964844 18.542969 14.824219 C 18.710938 13.445312 17.867188 12.234375 17.21875 11.84375 Z M 17.21875 11.84375 " fill-opacity="1" fill-rule="nonzero"/></svg>